<svg width="900" height="900" viewBox="0 0 900 900" fill="none" xmlns="http://www.w3.org/2000/svg">
<g clip-path="url(#clip0_7_106)">
<rect width="900" height="900" fill="#FEFEFE"/>
<path d="M526.938 744.595C465.349 744.595 404.005 744.905 342.666 744.497C293.644 744.171 253.73 724.218 223.118 686.017C209.321 668.801 200.235 649.123 195.251 627.628C192.826 617.172 191.393 606.556 191.442 595.783C191.445 595.062 191.442 594.341 191.442 593.485C364.187 593.485 536.71 593.485 709.394 593.485C709.394 643.792 709.394 694.036 709.394 744.595C648.647 744.595 587.916 744.595 526.938 744.595Z" fill="#0B0B0B"/>
<path d="M191.434 416.602C191.434 402.756 191.434 389.157 191.434 375.355C330.656 375.355 469.76 375.355 609 375.355C609 425.405 609 475.417 609 525.633C469.913 525.633 330.811 525.633 191.434 525.633C191.434 489.348 191.434 453.099 191.434 416.602Z" fill="#0B0B0B"/>
<path d="M335.61 156.543C337.986 156.486 340.129 156.401 342.272 156.4C393.799 156.393 445.327 156.395 496.855 156.395C497.743 156.395 498.631 156.395 499.643 156.395C499.643 206.877 499.643 257.122 499.643 307.503C396.956 307.503 294.355 307.503 191.756 307.503C189.16 240.433 243.62 161.659 335.61 156.543Z" fill="#0B0B0B"/>
<path d="M356.492 818.772C352.213 818.772 348.52 817.929 345.413 816.242C342.323 814.538 339.944 812.114 338.275 808.971C336.624 805.811 335.798 802.055 335.798 797.705C335.798 793.479 336.633 789.786 338.302 786.626C339.971 783.447 342.323 780.979 345.359 779.222C348.396 777.446 351.973 776.558 356.093 776.558C359.005 776.558 361.668 777.011 364.083 777.917C366.498 778.822 368.584 780.163 370.342 781.938C372.1 783.714 373.467 785.907 374.443 788.517C375.42 791.109 375.908 794.083 375.908 797.439V800.688H340.352V793.124H363.79C363.772 791.739 363.444 790.505 362.804 789.422C362.165 788.339 361.286 787.496 360.168 786.892C359.067 786.271 357.797 785.96 356.359 785.96C354.903 785.96 353.598 786.288 352.444 786.945C351.29 787.585 350.375 788.463 349.701 789.582C349.026 790.683 348.671 791.935 348.635 793.337V801.034C348.635 802.703 348.964 804.168 349.621 805.429C350.278 806.672 351.21 807.64 352.417 808.332C353.625 809.025 355.063 809.371 356.732 809.371C357.886 809.371 358.934 809.211 359.875 808.891C360.816 808.572 361.624 808.101 362.298 807.48C362.973 806.858 363.479 806.095 363.816 805.189L375.775 805.536C375.278 808.217 374.186 810.551 372.499 812.54C370.83 814.511 368.637 816.047 365.921 817.148C363.204 818.231 360.061 818.772 356.492 818.772ZM421.145 777.091L407.109 818H392.195L378.185 777.091H391.902L399.439 805.269H399.865L407.429 777.091H421.145ZM426.139 818V777.091H439.163V818H426.139ZM432.664 772.324C430.835 772.324 429.264 771.72 427.95 770.512C426.636 769.287 425.979 767.814 425.979 766.091C425.979 764.387 426.636 762.931 427.95 761.723C429.264 760.498 430.835 759.886 432.664 759.886C434.511 759.886 436.082 760.498 437.378 761.723C438.692 762.931 439.349 764.387 439.349 766.091C439.349 767.814 438.692 769.287 437.378 770.512C436.082 771.72 434.511 772.324 432.664 772.324ZM462.394 818.586C459.375 818.586 456.632 817.805 454.164 816.242C451.696 814.68 449.725 812.336 448.251 809.211C446.778 806.086 446.041 802.206 446.041 797.572C446.041 792.76 446.804 788.801 448.331 785.694C449.858 782.586 451.856 780.287 454.324 778.795C456.81 777.304 459.482 776.558 462.341 776.558C464.489 776.558 466.327 776.931 467.854 777.677C469.381 778.405 470.641 779.346 471.636 780.5C472.63 781.654 473.385 782.853 473.9 784.096H474.166V763.455H487.19V818H474.299V811.368H473.9C473.349 812.629 472.568 813.81 471.556 814.911C470.544 816.011 469.274 816.899 467.747 817.574C466.238 818.249 464.453 818.586 462.394 818.586ZM466.922 808.439C468.502 808.439 469.851 807.995 470.97 807.107C472.088 806.201 472.95 804.932 473.553 803.298C474.157 801.665 474.459 799.747 474.459 797.545C474.459 795.308 474.157 793.382 473.553 791.766C472.967 790.15 472.106 788.907 470.97 788.037C469.851 787.167 468.502 786.732 466.922 786.732C465.306 786.732 463.939 787.176 462.82 788.064C461.701 788.952 460.849 790.203 460.263 791.819C459.695 793.435 459.411 795.344 459.411 797.545C459.411 799.747 459.704 801.665 460.29 803.298C460.876 804.932 461.719 806.201 462.82 807.107C463.939 807.995 465.306 808.439 466.922 808.439ZM514.549 818.772C510.27 818.772 506.577 817.929 503.469 816.242C500.38 814.538 498.001 812.114 496.332 808.971C494.68 805.811 493.855 802.055 493.855 797.705C493.855 793.479 494.689 789.786 496.358 786.626C498.027 783.447 500.38 780.979 503.416 779.222C506.452 777.446 510.03 776.558 514.149 776.558C517.061 776.558 519.725 777.011 522.139 777.917C524.554 778.822 526.641 780.163 528.398 781.938C530.156 783.714 531.523 785.907 532.5 788.517C533.476 791.109 533.965 794.083 533.965 797.439V800.688H498.409V793.124H521.847C521.829 791.739 521.5 790.505 520.861 789.422C520.222 788.339 519.343 787.496 518.224 786.892C517.123 786.271 515.854 785.96 514.416 785.96C512.96 785.96 511.655 786.288 510.501 786.945C509.347 787.585 508.432 788.463 507.757 789.582C507.083 790.683 506.728 791.935 506.692 793.337V801.034C506.692 802.703 507.021 804.168 507.677 805.429C508.334 806.672 509.267 807.64 510.474 808.332C511.681 809.025 513.12 809.371 514.789 809.371C515.943 809.371 516.99 809.211 517.931 808.891C518.872 808.572 519.68 808.101 520.355 807.48C521.03 806.858 521.536 806.095 521.873 805.189L533.832 805.536C533.334 808.217 532.242 810.551 530.556 812.54C528.887 814.511 526.694 816.047 523.977 817.148C521.261 818.231 518.118 818.772 514.549 818.772ZM553.64 794.669V818H540.616V777.091H553.001V784.602H553.454C554.359 782.098 555.904 780.136 558.088 778.716C560.272 777.277 562.873 776.558 565.892 776.558C568.768 776.558 571.263 777.206 573.376 778.502C575.506 779.781 577.158 781.574 578.33 783.882C579.519 786.173 580.105 788.854 580.087 791.926V818H567.064V794.483C567.081 792.21 566.504 790.434 565.332 789.156C564.178 787.877 562.571 787.238 560.512 787.238C559.145 787.238 557.937 787.54 556.89 788.144C555.86 788.73 555.061 789.573 554.493 790.674C553.942 791.775 553.658 793.107 553.64 794.669ZM611.242 777.091V786.679H585.434V777.091H611.242ZM590.841 767.29H603.864V805.136C603.864 805.935 603.989 806.583 604.237 807.08C604.504 807.56 604.885 807.906 605.383 808.119C605.88 808.314 606.475 808.412 607.167 808.412C607.664 808.412 608.188 808.368 608.738 808.279C609.307 808.172 609.733 808.083 610.017 808.012L611.988 817.414C611.366 817.592 610.487 817.814 609.351 818.08C608.232 818.346 606.892 818.515 605.329 818.586C602.275 818.728 599.656 818.373 597.472 817.521C595.306 816.651 593.646 815.301 592.492 813.472C591.356 811.643 590.805 809.344 590.841 806.574V767.29Z" fill="#0B0B0B"/>
</g>
<defs>
<clipPath id="clip0_7_106">
<rect width="900" height="900" fill="white"/>
</clipPath>
</defs>
</svg>
