<svg width="900" height="900" viewBox="0 0 900 900" fill="none" xmlns="http://www.w3.org/2000/svg">
<g clip-path="url(#clip0_5_71)">
<rect width="900" height="900" fill="#0B0B0B"/>
<path d="M526.938 744.595C465.349 744.595 404.005 744.905 342.666 744.497C293.644 744.171 253.73 724.218 223.118 686.017C209.321 668.801 200.235 649.123 195.251 627.628C192.826 617.172 191.393 606.556 191.442 595.783C191.445 595.062 191.442 594.341 191.442 593.485C364.187 593.485 536.71 593.485 709.394 593.485C709.394 643.792 709.394 694.036 709.394 744.595C648.647 744.595 587.916 744.595 526.938 744.595Z" fill="#FEFEFE"/>
<path d="M191.434 416.603C191.434 402.756 191.434 389.157 191.434 375.355C330.656 375.355 469.76 375.355 609 375.355C609 425.405 609 475.417 609 525.633C469.913 525.633 330.811 525.633 191.434 525.633C191.434 489.348 191.434 453.099 191.434 416.603Z" fill="#FEFEFE"/>
<path d="M335.61 156.543C337.986 156.486 340.129 156.401 342.272 156.4C393.799 156.393 445.327 156.395 496.855 156.395C497.743 156.395 498.631 156.395 499.643 156.395C499.643 206.877 499.643 257.122 499.643 307.503C396.956 307.503 294.355 307.503 191.756 307.503C189.16 240.433 243.62 161.659 335.61 156.543Z" fill="#FEFEFE"/>
</g>
<defs>
<clipPath id="clip0_5_71">
<rect width="900" height="900" fill="white"/>
</clipPath>
</defs>
</svg>
