<svg width="631" height="302" viewBox="0 0 631 302" fill="none" xmlns="http://www.w3.org/2000/svg">
<rect width="631" height="302" fill="#FEFEFE"/>
<path d="M81.2955 197V103.909H146.205V122.182H103.795V141.273H142.886V159.591H103.795V178.727H146.205V197H81.2955ZM228.023 127.182L204.068 197H178.614L154.705 127.182H178.114L190.977 175.273H191.705L204.614 127.182H228.023ZM236.545 197V127.182H258.773V197H236.545ZM247.682 119.045C244.561 119.045 241.879 118.015 239.636 115.955C237.394 113.864 236.273 111.348 236.273 108.409C236.273 105.5 237.394 103.015 239.636 100.955C241.879 98.8636 244.561 97.8182 247.682 97.8182C250.833 97.8182 253.515 98.8636 255.727 100.955C257.97 103.015 259.091 105.5 259.091 108.409C259.091 111.348 257.97 113.864 255.727 115.955C253.515 118.015 250.833 119.045 247.682 119.045ZM298.42 198C293.269 198 288.587 196.667 284.375 194C280.163 191.333 276.799 187.333 274.284 182C271.769 176.667 270.511 170.045 270.511 162.136C270.511 153.924 271.814 147.167 274.42 141.864C277.027 136.561 280.436 132.636 284.648 130.091C288.89 127.545 293.451 126.273 298.33 126.273C301.996 126.273 305.133 126.909 307.739 128.182C310.345 129.424 312.496 131.03 314.193 133C315.89 134.97 317.178 137.015 318.057 139.136H318.511V103.909H340.739V197H318.739V185.682H318.057C317.117 187.833 315.784 189.848 314.057 191.727C312.33 193.606 310.163 195.121 307.557 196.273C304.981 197.424 301.936 198 298.42 198ZM306.148 180.682C308.845 180.682 311.148 179.924 313.057 178.409C314.966 176.864 316.436 174.697 317.466 171.909C318.496 169.121 319.011 165.848 319.011 162.091C319.011 158.273 318.496 154.985 317.466 152.227C316.466 149.47 314.996 147.348 313.057 145.864C311.148 144.379 308.845 143.636 306.148 143.636C303.39 143.636 301.057 144.394 299.148 145.909C297.239 147.424 295.784 149.561 294.784 152.318C293.814 155.076 293.33 158.333 293.33 162.091C293.33 165.848 293.83 169.121 294.83 171.909C295.83 174.697 297.269 176.864 299.148 178.409C301.057 179.924 303.39 180.682 306.148 180.682ZM387.432 198.318C380.129 198.318 373.826 196.879 368.523 194C363.25 191.091 359.189 186.955 356.341 181.591C353.523 176.197 352.114 169.788 352.114 162.364C352.114 155.152 353.538 148.848 356.386 143.455C359.235 138.03 363.25 133.818 368.432 130.818C373.614 127.788 379.72 126.273 386.75 126.273C391.72 126.273 396.265 127.045 400.386 128.591C404.508 130.136 408.068 132.424 411.068 135.455C414.068 138.485 416.402 142.227 418.068 146.682C419.735 151.106 420.568 156.182 420.568 161.909V167.455H359.886V154.545H399.886C399.856 152.182 399.295 150.076 398.205 148.227C397.114 146.379 395.614 144.939 393.705 143.909C391.826 142.848 389.659 142.318 387.205 142.318C384.72 142.318 382.492 142.879 380.523 144C378.553 145.091 376.992 146.591 375.841 148.5C374.689 150.379 374.083 152.515 374.023 154.909V168.045C374.023 170.894 374.583 173.394 375.705 175.545C376.826 177.667 378.417 179.318 380.477 180.5C382.538 181.682 384.992 182.273 387.841 182.273C389.811 182.273 391.598 182 393.205 181.455C394.811 180.909 396.189 180.106 397.341 179.045C398.492 177.985 399.356 176.682 399.932 175.136L420.341 175.727C419.492 180.303 417.629 184.288 414.75 187.682C411.902 191.045 408.159 193.667 403.523 195.545C398.886 197.394 393.523 198.318 387.432 198.318ZM454.148 157.182V197H431.92V127.182H453.057V140H453.83C455.375 135.727 458.011 132.379 461.739 129.955C465.466 127.5 469.905 126.273 475.057 126.273C479.966 126.273 484.223 127.379 487.83 129.591C491.466 131.773 494.284 134.833 496.284 138.773C498.314 142.682 499.314 147.258 499.284 152.5V197H477.057V156.864C477.087 152.985 476.102 149.955 474.102 147.773C472.133 145.591 469.39 144.5 465.875 144.5C463.542 144.5 461.481 145.015 459.693 146.045C457.936 147.045 456.572 148.485 455.602 150.364C454.663 152.242 454.178 154.515 454.148 157.182ZM552.455 127.182V143.545H508.409V127.182H552.455ZM517.636 110.455H539.864V175.045C539.864 176.409 540.076 177.515 540.5 178.364C540.955 179.182 541.606 179.773 542.455 180.136C543.303 180.47 544.318 180.636 545.5 180.636C546.348 180.636 547.242 180.561 548.182 180.409C549.152 180.227 549.879 180.076 550.364 179.955L553.727 196C552.667 196.303 551.167 196.682 549.227 197.136C547.318 197.591 545.03 197.879 542.364 198C537.152 198.242 532.682 197.636 528.955 196.182C525.258 194.697 522.424 192.394 520.455 189.273C518.515 186.152 517.576 182.227 517.636 177.5V110.455Z" fill="#0B0B0B"/>
</svg>
